<svg width="20" height="28" viewBox="0 0 20 28" fill="none" xmlns="http://www.w3.org/2000/svg">
<path d="M9.79026 25.1364L2.54013 18.7023L3.56009 11.8788C3.56009 11.1907 3.99176 10.6001 4.61032 10.3345L8.01021 11.0303C8.01021 10.3422 8.44187 9.75164 9.06044 9.48606L12.3678 10.164L12.4603 10.1818V2.54546C12.4603 1.85733 12.892 1.26679 13.5106 1.00121L16.7253 12.5915L16.9104 12.7273C17.731 12.7273 18.444 14.4242 18.444 14.4242L18.4457 14.437L9.79026 25.1364Z" fill="#EF9645"/>
<path d="M8.01021 13.3874C7.46819 13.8532 7.12019 14.521 7.12019 15.2727C7.12019 15.9116 7.37563 16.4886 7.78326 16.9349C7.47976 17.4584 6.90213 17.8182 6.23017 17.8182C5.24758 17.8182 4.45012 17.0579 4.45012 16.1212V11.0303C4.45012 10.7817 4.50975 10.5475 4.61032 10.3345C4.8889 9.74485 5.50836 9.33334 6.23017 9.33334C7.21275 9.33334 8.01021 10.0936 8.01021 11.0303V13.3874Z" fill="#FFDC5D"/>
<path d="M0 4.24242C0 3.3057 0.797461 2.54545 1.78005 2.54545C2.76263 2.54545 3.56009 3.3057 3.56009 4.24242V16.1212C3.56009 16.8331 3.89652 17.5288 4.44923 18.0057C5.48877 18.8202 6.97956 18.8907 8.00932 18.004C8.18911 17.8479 8.35109 17.6756 8.48103 17.4796L8.47836 17.4771C8.65726 17.5747 8.90024 17.8182 9.79026 17.8182H12.0482C10.4382 18.9764 9.34525 21.2036 9.34525 23.7576C9.34525 23.9918 9.54461 24.1818 9.79026 24.1818C10.0359 24.1818 10.2353 23.9918 10.2353 23.7576C10.2353 20.4833 12.1818 17.8182 14.5741 17.8182C15.2087 17.8852 15.328 16.9697 14.6854 16.9697H9.79026C8.80767 16.9697 8.01021 16.2095 8.01021 15.2727C8.01021 14.336 8.80767 13.5758 9.79026 13.5758H16.9104C17.772 13.5758 18.2286 14.0815 18.4457 14.437C18.5579 14.6211 18.6104 14.767 18.6131 14.7764L19.5805 17.8182C19.6722 18.1024 20.0068 19.4057 19.9463 19.6772C19.9463 23.7576 15.7668 28 10.6803 28C4.8622 28 0 23.5455 0 17.8182C0.00712019 17.8241 0 4.24242 0 4.24242Z" fill="#FFDC5D"/>
<path d="M12.4603 12.7273H9.79026C9.47697 12.7273 9.1806 12.7884 8.90024 12.8834V10.1818C8.90024 9.93321 8.95987 9.69903 9.06044 9.48606C9.33902 8.89636 9.95848 8.48485 10.6803 8.48485C11.6629 8.48485 12.4603 9.24509 12.4603 10.1818V12.7273ZM13.3504 12.7273V1.69697C13.3504 1.44836 13.41 1.21418 13.5106 1.00121C13.7891 0.411515 14.4086 0 15.1304 0C16.113 0 16.9105 0.760242 16.9105 1.69697V12.7273H13.3504Z" fill="#FFDC5D"/>
</svg>
