<svg width="75" height="19" viewBox="0 0 75 19" fill="none" xmlns="http://www.w3.org/2000/svg">
<path d="M0.608795 1.2H5.34977V14.232H13.3472V18H0.608795V1.2Z" fill="#222222"/>
<path d="M24.6156 18.336C22.8437 18.336 21.2474 17.96 19.8267 17.208C18.422 16.456 17.3126 15.416 16.4985 14.088C15.7003 12.76 15.3012 11.264 15.3012 9.6C15.3012 7.936 15.7003 6.44 16.4985 5.112C17.3126 3.784 18.422 2.744 19.8267 1.992C21.2474 1.24 22.8437 0.863998 24.6156 0.863998C26.3875 0.863998 27.9758 1.24 29.3805 1.992C30.8012 2.744 31.9106 3.784 32.7087 5.112C33.5229 6.44 33.9299 7.936 33.9299 9.6C33.9299 11.264 33.5229 12.76 32.7087 14.088C31.9106 15.416 30.8012 16.456 29.3805 17.208C27.9758 17.96 26.3875 18.336 24.6156 18.336ZM24.6156 14.4C25.4616 14.4 26.2278 14.2 26.9142 13.8C27.6006 13.4 28.1434 12.84 28.5424 12.12C28.9415 11.384 29.141 10.544 29.141 9.6C29.141 8.656 28.9415 7.824 28.5424 7.104C28.1434 6.368 27.6006 5.8 26.9142 5.4C26.2278 5 25.4616 4.8 24.6156 4.8C23.7695 4.8 23.0033 5 22.3169 5.4C21.6305 5.8 21.0878 6.368 20.6887 7.104C20.2896 7.824 20.0901 8.656 20.0901 9.6C20.0901 10.544 20.2896 11.384 20.6887 12.12C21.0878 12.84 21.6305 13.4 22.3169 13.8C23.0033 14.2 23.7695 14.4 24.6156 14.4Z" fill="#222222"/>
<path d="M48.8401 9.24H53.0304V16.2C52.0726 16.888 50.9711 17.416 49.726 17.784C48.4809 18.152 47.2358 18.336 45.9907 18.336C44.2348 18.336 42.6545 17.968 41.2498 17.232C39.845 16.48 38.7436 15.44 37.9454 14.112C37.1473 12.784 36.7482 11.28 36.7482 9.6C36.7482 7.92 37.1473 6.416 37.9454 5.088C38.7436 3.76 39.853 2.728 41.2737 1.992C42.6944 1.24 44.2987 0.863998 46.0865 0.863998C47.6509 0.863998 49.0556 1.128 50.3007 1.656C51.5458 2.184 52.5834 2.944 53.4135 3.936L50.3965 6.672C49.2631 5.424 47.9063 4.8 46.3259 4.8C44.8893 4.8 43.732 5.24 42.854 6.12C41.9761 6.984 41.5371 8.144 41.5371 9.6C41.5371 10.528 41.7366 11.36 42.1357 12.096C42.5348 12.816 43.0935 13.384 43.8118 13.8C44.5301 14.2 45.3522 14.4 46.2781 14.4C47.1879 14.4 48.042 14.216 48.8401 13.848V9.24Z" fill="#222222"/>
<path d="M65.6857 18.336C63.9138 18.336 62.3175 17.96 60.8968 17.208C59.4921 16.456 58.3826 15.416 57.5685 14.088C56.7704 12.76 56.3713 11.264 56.3713 9.6C56.3713 7.936 56.7704 6.44 57.5685 5.112C58.3826 3.784 59.4921 2.744 60.8968 1.992C62.3175 1.24 63.9138 0.863998 65.6857 0.863998C67.4575 0.863998 69.0458 1.24 70.4506 1.992C71.8713 2.744 72.9807 3.784 73.7788 5.112C74.5929 6.44 75 7.936 75 9.6C75 11.264 74.5929 12.76 73.7788 14.088C72.9807 15.416 71.8713 16.456 70.4506 17.208C69.0458 17.96 67.4575 18.336 65.6857 18.336ZM65.6857 14.4C66.5317 14.4 67.2979 14.2 67.9843 13.8C68.6707 13.4 69.2134 12.84 69.6125 12.12C70.0116 11.384 70.2111 10.544 70.2111 9.6C70.2111 8.656 70.0116 7.824 69.6125 7.104C69.2134 6.368 68.6707 5.8 67.9843 5.4C67.2979 5 66.5317 4.8 65.6857 4.8C64.8396 4.8 64.0734 5 63.387 5.4C62.7006 5.8 62.1579 6.368 61.7588 7.104C61.3597 7.824 61.1602 8.656 61.1602 9.6C61.1602 10.544 61.3597 11.384 61.7588 12.12C62.1579 12.84 62.7006 13.4 63.387 13.8C64.0734 14.2 64.8396 14.4 65.6857 14.4Z" fill="#222222"/>
</svg>
