<svg width="40" height="40" viewBox="0 0 40 40" fill="none" xmlns="http://www.w3.org/2000/svg">
<path d="M5.34268 14.7041C1.96104 20.5723 4.11081 29.4776 7.85036 34.8772C9.71698 37.5768 11.6068 40 14.1953 40C14.2441 40 14.293 39.999 14.3431 39.9971C15.5592 39.9486 16.438 39.5741 17.2877 39.2123C18.2417 38.8057 19.2283 38.3854 20.7759 38.3854C22.2481 38.3854 23.1877 38.7921 24.0963 39.1853C24.9917 39.5727 25.9141 39.9735 27.277 39.9479C30.1927 39.8936 31.9828 37.2788 33.5622 34.972C35.2104 32.5635 36.0371 30.225 36.3161 29.3314L36.3273 29.2958C36.3805 29.137 36.3054 28.9636 36.1532 28.8937C36.149 28.8918 36.1335 28.8853 36.1292 28.8835C35.6157 28.6735 31.1119 26.6755 31.0645 21.2297C31.0206 16.8053 34.4433 14.4624 35.1297 14.0377L35.1617 14.0178C35.2361 13.9699 35.2879 13.894 35.3054 13.8072C35.323 13.7205 35.3047 13.6303 35.2548 13.5573C32.8923 10.1 29.2713 9.57898 27.8135 9.5163C27.602 9.49518 27.3836 9.48456 27.1643 9.48456C25.4521 9.48456 23.8118 10.1312 22.494 10.6509C21.5844 11.0095 20.7987 11.3193 20.2568 11.3193C19.6479 11.3193 18.8577 11.0057 17.9427 10.6427C16.7191 10.1571 15.3322 9.60679 13.864 9.60679C13.829 9.60679 13.7945 9.60718 13.7605 9.60784C10.3467 9.65807 7.12104 11.6111 5.34268 14.7041Z" fill="white"/>
<path d="M27.8165 0.000251991C25.7492 0.0844487 23.2694 1.35697 21.7871 3.0931C20.5275 4.55238 19.2969 6.98543 19.6211 9.43789C19.6414 9.59133 19.7663 9.70976 19.9207 9.72169C20.0602 9.73258 20.2026 9.73809 20.3445 9.73822C22.3659 9.73822 24.5465 8.61992 26.0357 6.81927C27.603 4.91789 28.3955 2.47776 28.1558 0.292055C28.1369 0.120777 27.9862 -0.00643653 27.8165 0.000251991Z" fill="white"/>
</svg>
